<?xml version="1.0" encoding="utf-8"?>
<!-- Generator: Adobe Illustrator 16.0.0, SVG Export Plug-In . SVG Version: 6.00 Build 0)  -->
<!DOCTYPE svg PUBLIC "-//W3C//DTD SVG 1.1//EN" "http://www.w3.org/Graphics/SVG/1.1/DTD/svg11.dtd">
<svg version="1.1" id="Layer_1" xmlns="http://www.w3.org/2000/svg" xmlns:xlink="http://www.w3.org/1999/xlink" x="0px" y="0px"
	 width="360px" height="504px" viewBox="0 0 360 504" enable-background="new 0 0 360 504" xml:space="preserve">
<circle fill="#F48791" cx="-149.393" cy="241.277" r="17.432"/>
<circle fill="#F48791" cx="-165.393" cy="275.699" r="13.584"/>
<circle fill="#F48791" cx="-145.393" cy="310.12" r="13.584"/>
<g>
	<path fill="#F15B61" d="M-350.66,325.329c0,23.358-18.936,42.297-42.295,42.297c-23.358,0-42.295-18.938-42.295-42.297
		c0-23.354,18.937-42.293,42.295-42.293C-369.595,283.036-350.66,301.975-350.66,325.329z"/>
	<path fill="#F48791" d="M-364.522,294.02c7.263,7.601,11.732,17.882,11.732,29.222c0,23.356-20.484,39.473-43.844,39.473
		c-10.948,0-19.375-1.336-26.885-8.16c7.7,8.058,18.541,13.078,30.563,13.078c23.359,0,42.295-18.938,42.295-42.297
		C-350.66,312.919-356.006,301.759-364.522,294.02z"/>
</g>
<g>
	<path fill="#F15B61" d="M-355.896,400.251c0,20.467-16.592,37.062-37.059,37.062c-20.467,0-37.058-16.6-37.058-37.062
		s16.591-37.058,37.058-37.058S-355.896,379.786-355.896,400.251z"/>
	<path fill="#F48791" d="M-368.044,372.814c6.366,6.653,10.28,15.668,10.28,25.604c0,20.467-17.947,34.584-38.414,34.584
		c-9.592,0-16.976-1.174-23.556-7.152c6.748,7.062,16.246,11.461,26.78,11.461c20.467,0,37.059-16.594,37.059-37.061
		C-355.896,389.378-360.58,379.598-368.044,372.814z"/>
</g>
<g>
	<path fill="#F15B61" d="M-360.359,464.38c0,18.004-14.594,32.598-32.596,32.598c-18.001,0-32.595-14.594-32.595-32.598
		c0-17.998,14.594-32.592,32.595-32.592C-374.953,431.788-360.359,446.382-360.359,464.38z"/>
	<path fill="#F48791" d="M-371.043,440.253c5.598,5.854,9.043,13.777,9.043,22.516c0,18.01-15.787,30.426-33.789,30.426
		c-8.438,0-14.932-1.031-20.719-6.291c5.934,6.209,14.289,10.074,23.554,10.074c18.002,0,32.596-14.594,32.596-32.598
		C-360.359,454.817-364.479,446.216-371.043,440.253z"/>
</g>
<path opacity="0.6" fill="#FFFFFF" enable-background="new    " d="M298.01,144.902c0,69.32-56.188,125.51-125.509,125.51
	c-69.317,0-125.508-56.19-125.508-125.51c0-69.314,56.19-125.506,125.508-125.506S298.01,75.587,298.01,144.902z"/>
<path opacity="0.6" fill="#FFFFFF" enable-background="new    " d="M298.01,144.902c0,69.32-56.188,125.51-125.509,125.51
	c-69.317,0-125.508-56.19-125.508-125.51c0-69.314,56.19-125.506,125.508-125.506S298.01,75.587,298.01,144.902z"/>
<path opacity="0.6" fill="#FFFFFF" enable-background="new    " d="M168.245,311.67c0,17.68-14.33,32.01-32.008,32.01
	c-17.679,0-32.009-14.33-32.009-32.01c0-17.676,14.33-32.006,32.009-32.006C153.915,279.664,168.245,293.994,168.245,311.67z"/>
<path opacity="0.6" fill="#FFFFFF" enable-background="new    " d="M220.737,356.527c0,13.322-10.802,24.125-24.123,24.125
	c-13.323,0-24.123-10.803-24.123-24.125s10.8-24.121,24.123-24.121C209.936,332.406,220.737,343.205,220.737,356.527z"/>
<path opacity="0.6" fill="#FFFFFF" enable-background="new    " d="M179.287,420.916c0,10.68-8.657,19.336-19.336,19.336
	c-10.68,0-19.337-8.656-19.337-19.336s8.657-19.336,19.337-19.336C170.63,401.58,179.287,410.236,179.287,420.916z"/>
<g>
	<g>
		<g id="XMLID_22_">
			<path id="XMLID_24_" fill="#0B108C" d="M470.576-80.276v-41.185c2.196,0.214,4.787,0.325,7.614,0.325
				c17.233,0,31.166-4.545,40.299-13.15c7.48-7.107,11.602-17.695,11.602-29.813c0-11.769-4.922-22.411-13.496-29.191
				c-8.429-6.742-20.814-10.02-37.866-10.02c-14.771,0-27.252,0.85-37.101,2.526c-0.807,0.136-1.396,0.835-1.396,1.653v118.854
				c0,0.927,0.751,1.677,1.678,1.677h26.989C469.825-78.599,470.576-79.35,470.576-80.276z M470.576-145.824v-32.842
				c1.647-0.316,4.742-0.734,9.581-0.734c12.45,0,19.591,5.837,19.591,16.016c0,11.259-8.125,17.982-21.735,17.982
				C474.747-145.403,472.422-145.532,470.576-145.824z"/>
			<path id="XMLID_23_" fill="#0B108C" d="M578.999-135.3c-11.12-3.891-12.996-5.744-12.996-8.424c0-4.761,5.443-5.471,8.688-5.471
				c6.892,0,14.08,2.585,18.142,4.798c0.455,0.248,0.996,0.272,1.472,0.066c0.474-0.207,0.827-0.621,0.956-1.122l4.826-18.764
				c0.197-0.766-0.168-1.565-0.875-1.918c-5.01-2.505-14.316-5.182-25.415-5.182c-21.93,0-37.245,12.449-37.245,30.245
				c-0.148,8.683,4.239,20.571,25.99,27.892c10.565,3.522,11.722,5.353,11.722,8.417c0,1.397,0,5.65-9.939,5.65
				c-7.445,0-17.498-3.307-22.542-6.37c-0.458-0.277-1.018-0.32-1.512-0.116c-0.492,0.203-0.859,0.629-0.988,1.147l-4.825,19.483
				c-0.185,0.742,0.158,1.515,0.831,1.879c7.381,3.989,17.965,6.278,29.036,6.278c24.407,0,39.568-11.464,39.568-29.939
				C603.699-120.638,596.019-129.443,578.999-135.3z"/>
		</g>
	</g>
</g>
<g>
	<g id="XMLID_449_">
		<path id="XMLID_450_" fill="#0B108C" d="M97.131,199.615h26.038c0.695,0,1.305-0.463,1.491-1.134l7.595-27.375h29.479
			l8.238,27.408c0.197,0.654,0.8,1.102,1.482,1.102h27.026c0.004,0,0.009,0,0.012,0c0.854,0,1.547-0.692,1.547-1.547
			c0-0.228-0.048-0.445-0.138-0.64L165.517,86.539c-0.201-0.647-0.8-1.089-1.479-1.089h-32.959c-0.681,0-1.281,0.445-1.479,1.095
			L95.651,197.616c-0.142,0.469-0.056,0.978,0.236,1.373C96.18,199.382,96.64,199.615,97.131,199.615z M157.191,149.225h-20.447
			l6.042-21.599c1.098-3.892,2.135-8.498,3.137-12.951c0.23-1.023,0.457-2.027,0.681-3.008c1.326,5.335,2.787,11.1,4.25,15.975
			L157.191,149.225z"/>
		<path id="XMLID_453_" fill="#0B108C" d="M211.485,115.937c-0.855,0-1.548,0.692-1.548,1.547v80.584
			c0,0.855,0.692,1.547,1.548,1.547h25.048c0.854,0,1.547-0.692,1.547-1.547v-80.584c0-0.854-0.692-1.547-1.547-1.547H211.485z"/>
		<path id="XMLID_454_" fill="#0B108C" d="M223.845,109.142c8.727,0,15.061-5.918,15.061-14.106
			c-0.19-8.362-6.316-14.202-14.896-14.202c-4.38,0-8.27,1.511-10.952,4.256c-2.517,2.575-3.857,6.118-3.779,9.98
			c-0.08,3.74,1.265,7.219,3.787,9.803C215.753,107.625,219.582,109.142,223.845,109.142z"/>
	</g>
	<g>
	</g>
	<g>
	</g>
	<g>
	</g>
	<g>
	</g>
	<g>
	</g>
	<g>
	</g>
	<g>
	</g>
	<g>
	</g>
	<g>
	</g>
	<g>
	</g>
	<g>
	</g>
	<g>
	</g>
	<g>
	</g>
	<g>
	</g>
	<g>
	</g>
</g>
</svg>
