<?xml version="1.0" encoding="utf-8"?>
<!-- Generator: Adobe Illustrator 16.0.0, SVG Export Plug-In . SVG Version: 6.00 Build 0)  -->
<!DOCTYPE svg PUBLIC "-//W3C//DTD SVG 1.1//EN" "http://www.w3.org/Graphics/SVG/1.1/DTD/svg11.dtd">
<svg version="1.1" id="Layer_1" xmlns="http://www.w3.org/2000/svg" xmlns:xlink="http://www.w3.org/1999/xlink" x="0px" y="0px"
	 width="576px" height="576px" viewBox="0 0 576 576" enable-background="new 0 0 576 576" xml:space="preserve">
<pattern  x="0.5" y="576.5" width="527.827" height="130.435" patternUnits="userSpaceOnUse" id="SVGID_4_" viewBox="0 -130.436 527.827 130.435" overflow="visible">
	<g>
		<polygon fill="none" points="0,-0.001 527.827,-0.001 527.827,-130.436 0,-130.436 		"/>
		<g>
			<polygon fill="none" points="0,-130.436 527.827,-130.436 527.827,0 0,0 			"/>
			<g>
				<polygon fill="none" points="0,0 527.827,0 527.827,-130.436 0,-130.436 				"/>
				<polygon fill="#EE5760" points="459.131,0 65.217,0 0,-130.436 527.827,-130.436 				"/>
			</g>
		</g>
	</g>
</pattern>
<pattern  x="0.5" y="576.5" width="527.827" height="130.435" patternUnits="userSpaceOnUse" id="SVGID_5_" viewBox="0 -130.436 527.827 130.435" overflow="visible">
	<g>
		<polygon fill="none" points="0,-0.001 527.827,-0.001 527.827,-130.436 0,-130.436 		"/>
		<g>
			<polygon fill="none" points="0,-130.436 527.827,-130.436 527.827,0 0,0 			"/>
			<g>
				<polygon fill="none" points="0,0 527.827,0 527.827,-130.436 0,-130.436 				"/>
				<polygon fill="#EE5760" points="459.131,0 65.217,0 0,-130.436 527.827,-130.436 				"/>
			</g>
		</g>
	</g>
</pattern>
<pattern  x="0.5" y="576.5" width="527.827" height="130.435" patternUnits="userSpaceOnUse" id="SVGID_6_" viewBox="0 -130.436 527.827 130.435" overflow="visible">
	<g>
		<polygon fill="none" points="0,-0.001 527.827,-0.001 527.827,-130.436 0,-130.436 		"/>
		<g>
			<polygon fill="none" points="0,-130.436 527.827,-130.436 527.827,0 0,0 			"/>
			<g>
				<polygon fill="none" points="0,0 527.827,0 527.827,-130.436 0,-130.436 				"/>
				<polygon fill="#EE5760" points="459.131,0 65.217,0 0,-130.436 527.827,-130.436 				"/>
			</g>
		</g>
	</g>
</pattern>
<pattern  id="SVGID_1_" xlink:href="#SVGID_4_" patternTransform="matrix(1 0 0 1 -58.6733 16645.3711)">
</pattern>
<polygon fill="#EE5760" stroke="url(#SVGID_1_)" stroke-miterlimit="10" points="-460.857,616.443 -854.771,616.443 
	-919.988,486.009 -392.162,486.009 "/>
<g>
	<rect x="133.26" y="151.821" fill="#2B302E" width="61.834" height="180"/>
	<rect x="133.26" y="220.154" fill="#EE5760" width="61.834" height="44.667"/>
	<rect x="133.26" y="191.154" fill="#EE5760" width="61.834" height="18.167"/>
	<rect x="133.26" y="166.154" fill="#EE5760" width="61.834" height="18.167"/>
	<rect x="40.614" y="311.214" fill="#F2F2F2" width="153.479" height="81.74"/>
	<rect x="192.096" y="243.388" fill="#FFFFFF" width="307.826" height="149.566"/>
	<path fill="#2B302E" d="M186.26,232.727c0-3.521,4.16-6.375,9.291-6.375h299.418c5.131,0,9.291,2.854,9.291,6.375v3.188
		c0,3.521-4.16,6.375-9.291,6.375H195.551c-5.131,0-9.291-2.854-9.291-6.375V232.727z"/>
	<circle fill="#1E52A2" cx="154.044" cy="349.389" r="27.217"/>
	<circle fill="#1E52A2" cx="78.044" cy="349.389" r="27.217"/>
	<g>
		<rect x="346.006" y="250.171" fill="#1E52A2" width="143.254" height="106.649"/>
	</g>
	<g>
		<rect x="347.008" y="250.171" fill="#2B69B3" width="73.348" height="106.649"/>
	</g>
	<rect x="207.26" y="251.171" fill="#1E52A2" width="126" height="101.913"/>
	<rect x="207.26" y="251.171" fill="#2B69B3" width="66.271" height="101.913"/>
	<g>
		<ellipse fill="#FFFFFF" cx="438.869" cy="115.498" rx="96.089" ry="58.591"/>
		<ellipse fill="#FFFFFF" cx="365.314" cy="98.059" rx="55.345" ry="40.095"/>
		<ellipse fill="#FFFFFF" cx="482.616" cy="79.954" rx="52.341" ry="35.544"/>
		<ellipse fill="#FFFFFF" cx="477.031" cy="168.887" rx="38.163" ry="17.796"/>
		<ellipse fill="#FFFFFF" cx="520.895" cy="136.074" rx="26.561" ry="38.015"/>
	</g>
	<pattern  id="SVGID_2_" xlink:href="#SVGID_5_" patternTransform="matrix(-0.6292 0 0 0.6274 -7330.4189 7363.9863)">
	</pattern>
	<polygon fill="#EE5760" stroke="url(#SVGID_2_)" stroke-miterlimit="10" points="282.74,377.648 557.969,377.648 523.094,499.365 
		282.74,499.365 	"/>
	<pattern  id="SVGID_3_" xlink:href="#SVGID_6_" patternTransform="matrix(0.6292 0 0 0.5101 22260.5449 4592.0557)">
	</pattern>
	<polygon fill="#EE5760" stroke="url(#SVGID_3_)" stroke-miterlimit="10" points="302.063,400.4 26.833,400.4 61.709,499.365 
		302.063,499.365 	"/>
	<path fill="#2B302E" d="M277.999,379.243v-3.188c0-3.521,3.72-6.375,8.306-6.375h267.65c4.588,0,8.307,2.854,8.307,6.375v3.188
		c0,3.521-3.719,6.375-8.307,6.375h-267.65C281.719,385.618,277.999,382.764,277.999,379.243L277.999,379.243z"/>
	<polygon fill="#FF8894" points="42.594,400.4 77.469,499.365 97.469,499.365 62.594,400.4 	"/>
	<polygon fill="#FF8894" points="77.094,400.4 111.969,499.365 131.969,499.365 97.094,400.4 	"/>
	<polygon fill="#FF8894" points="111.594,400.4 146.469,499.365 166.469,499.365 131.594,400.4 	"/>
	<path fill="#2B302E" d="M17.801,401.994v-3.188c0-3.52,3.614-6.374,8.07-6.374H285.93c4.455,0,8.067,2.854,8.067,6.374v3.188
		c0,3.521-3.612,6.375-8.067,6.375H25.871c-4.456,0-8.068-2.854-8.068-6.375H17.801z"/>
	<path fill="#2B302E" d="M472.075,412.038c0,15.751,12.769,28.519,28.519,28.519s28.519-12.768,28.519-28.519
		c0-15.75-12.769-28.521-28.519-28.521S472.075,396.287,472.075,412.038z M478.688,412.036c0-12.097,9.807-21.905,21.905-21.905
		c12.098,0,21.905,9.807,21.905,21.905c0,12.096-9.807,21.905-21.905,21.905S478.688,424.133,478.688,412.036z"/>
	<path fill="#2B302E" d="M399.075,412.038c0,15.751,12.769,28.519,28.519,28.519s28.519-12.768,28.519-28.519
		c0-15.75-12.769-28.521-28.519-28.521S399.075,396.287,399.075,412.038z M405.688,412.036c0-12.097,9.807-21.905,21.905-21.905
		c12.098,0,21.905,9.807,21.905,21.905c0,12.096-9.807,21.905-21.905,21.905S405.688,424.133,405.688,412.036z"/>
	<g>
		<ellipse fill="#FFFFFF" cx="142.946" cy="49.197" rx="40.597" ry="22.358"/>
		<ellipse fill="#FFFFFF" cx="89.405" cy="71.555" rx="0" ry="12.944"/>
		<ellipse fill="#FFFFFF" cx="132.355" cy="82.146" rx="60.603" ry="44.715"/>
		<ellipse fill="#FFFFFF" cx="102.348" cy="57.435" rx="32.36" ry="30.595"/>
		<ellipse fill="#FFFFFF" cx="188.223" cy="82.146" rx="32.36" ry="30.595"/>
	</g>
	<path fill="#FFFFFF" d="M221.131,499.093c0-3.128,2.007-5.664,4.481-5.664h339.802c2.475,0,4.48,2.536,4.48,5.664l0,0
		c0,3.13-2.006,5.666-4.48,5.666H225.612C223.139,504.759,221.131,502.223,221.131,499.093L221.131,499.093z"/>
	<path fill="#1E52A2" d="M220.131,501.093c0-3.128,2.007-5.664,4.481-5.664h339.802c2.475,0,4.48,2.536,4.48,5.664l0,0
		c0,3.13-2.006,5.666-4.48,5.666H224.612C222.139,506.759,220.131,504.223,220.131,501.093L220.131,501.093z"/>
	<path fill="#FFFFFF" d="M6.879,515.763c0-3.128,1.652-5.664,3.689-5.664h279.74c2.037,0,3.688,2.536,3.688,5.664l0,0
		c0,3.13-1.651,5.666-3.688,5.666H10.568C8.531,521.429,6.879,518.893,6.879,515.763L6.879,515.763z"/>
	<path fill="#1E52A2" d="M6.879,516.763c0-3.128,1.652-5.664,3.689-5.664h279.74c2.037,0,3.688,2.536,3.688,5.664l0,0
		c0,3.13-1.651,5.666-3.688,5.666H10.568C8.531,522.429,6.879,519.893,6.879,516.763L6.879,516.763z"/>
	<path fill="#FFFFFF" d="M284.034,533.093c0-3.128,1.651-5.664,3.69-5.664h279.74c2.037,0,3.688,2.536,3.688,5.664l0,0
		c0,3.13-1.651,5.666-3.688,5.666H287.723C285.686,538.759,284.034,536.223,284.034,533.093L284.034,533.093z"/>
	<path fill="#1E52A2" d="M284.034,534.093c0-3.128,1.651-5.664,3.69-5.664h279.74c2.037,0,3.688,2.536,3.688,5.664l0,0
		c0,3.13-1.651,5.666-3.688,5.666H287.723C285.686,539.759,284.034,537.223,284.034,534.093L284.034,534.093z"/>
	<path fill="#FFFFFF" d="M10.531,552.058c0-2.021,3.202-3.659,7.15-3.658h542.065c3.948,0,7.149,1.638,7.149,3.658l0,0
		c0,2.021-3.201,3.66-7.149,3.66H17.681C13.733,555.718,10.531,554.079,10.531,552.058L10.531,552.058z"/>
	<path fill="#1E52A2" d="M10.531,554.058c0-2.021,3.202-3.659,7.15-3.658h542.065c3.948,0,7.149,1.638,7.149,3.658l0,0
		c0,2.021-3.201,3.66-7.149,3.66H17.681C13.733,557.718,10.531,556.079,10.531,554.058L10.531,554.058z"/>
</g>
</svg>
