<?xml version="1.0" encoding="utf-8"?>
<!-- Generator: Adobe Illustrator 16.0.0, SVG Export Plug-In . SVG Version: 6.00 Build 0)  -->
<!DOCTYPE svg PUBLIC "-//W3C//DTD SVG 1.1//EN" "http://www.w3.org/Graphics/SVG/1.1/DTD/svg11.dtd">
<svg version="1.1" id="Layer_1" xmlns="http://www.w3.org/2000/svg" xmlns:xlink="http://www.w3.org/1999/xlink" x="0px" y="0px"
	 width="216px" height="216px" viewBox="0 0 216 216" enable-background="new 0 0 216 216" xml:space="preserve">
<circle fill="#D08D29" cx="654.092" cy="-142.232" r="97.298"/>
<circle fill="#FCB715" stroke="#A26F29" stroke-width="2" stroke-miterlimit="10" cx="654.092" cy="-142.232" r="87.174"/>
<g>
	<g>
		<path fill="#D08D29" d="M653.699-203.913c-34.621,0-62.688,28.069-62.688,62.688c0,34.623,28.066,62.689,62.688,62.689
			c34.62,0,62.688-28.066,62.688-62.689C716.388-175.844,688.319-203.913,653.699-203.913z M671.258-93.469
			c-0.356-4.905-0.761-10.982-0.785-13.442c-0.158-1.889-0.361-6.691-4.922-9.758c18.106-1.52,26.721-11.525,27.343-24.748
			c0.515-7.53-2.479-14.153-7.794-19.495c0.27-5.719-0.174-12.492-0.54-15.469c-4.083-1.175-13.603,3.851-16.265,6.001
			c-5.611-2.178-19.344-2.942-27.688,0c-5.919-4.16-12.652-6.73-16.323-6.015c-3.389,7.512-1.211,14.611-0.549,15.458
			c-4.364,3.987-10.453,8.897-8.799,19.182c2.652,15.08,13.263,23.213,30.344,25.205c-3.643,0.745-4.26,3.462-4.564,4.644
			c-11.471,4.732-14.752-2.924-16.201-4.918c-4.814-5.959-9.136-4.23-9.403-4.139c-0.26,0.096-0.452,0.473-0.427,0.652
			c0.243,1.284,2.863,2.59,2.994,2.694c3.553,2.648,4.871,7.431,5.68,8.796c5.096,8.382,16.946,4.905,17.059,4.976
			c0.01,0.733-0.082,6.9-0.15,11.7c-21.605-5.9-37.5-25.608-37.5-49.082c0-28.129,22.802-50.932,50.934-50.932
			s50.936,22.803,50.936,50.932C704.635-119.271,690.725-100.627,671.258-93.469z"/>
	</g>
</g>
<circle fill="#CF8D2A" stroke="#A26F29" stroke-width="2" stroke-miterlimit="10" cx="108.033" cy="106.5" r="101.225"/>
<circle fill="#FCB715" stroke="#A26F29" stroke-width="2" stroke-miterlimit="10" cx="108.033" cy="106.5" r="90.694"/>
<g>
	<g>
		<path fill="#FCB715" stroke="#A26F29" stroke-width="2" stroke-miterlimit="10" d="M107.293,40.238
			c-37.006,0-67.003,29.997-67.003,67.003c0,37.005,29.997,67.002,67.003,67.002c37.003,0,67.001-29.997,67.001-67.002
			C174.295,70.235,144.297,40.238,107.293,40.238z M107.293,163.773c-31.224,0-56.534-25.31-56.534-56.532
			c0-31.224,25.31-56.534,56.534-56.534c31.223,0,56.534,25.31,56.534,56.534C163.827,138.464,138.517,163.773,107.293,163.773z"/>
		<g>
			<g>
				<path fill="#FCB715" stroke="#A26F29" stroke-width="2" stroke-miterlimit="10" d="M73.817,140.714H86.38V90.46H73.817V140.714z
					 M124.067,90.46c-10.754,0.182-16.046,8.021-16.749,8.376V90.46H94.755v50.254h12.563v-29.315c0-1.074,2.648-9.683,12.562-8.374
					c5.325,0.347,8.194,7.389,8.375,8.374v29.315l12.515,0.058v-34.791C140.327,100.96,137.817,90.642,124.067,90.46z M80.098,73.71
					c-3.469,0-6.281,2.81-6.281,6.281c0,3.474,2.812,6.282,6.281,6.282c3.466,0,6.282-2.809,6.282-6.282
					C86.38,76.52,83.564,73.71,80.098,73.71z"/>
			</g>
		</g>
	</g>
</g>
<g>
	<circle fill="#BBB032" cx="-572.477" cy="131.008" r="136.725"/>
	<circle fill="#F6EC13" stroke="#ABA635" stroke-width="2" stroke-miterlimit="10" cx="-572.476" cy="131.008" r="122.5"/>
</g>
</svg>
