<?xml version="1.0" encoding="utf-8"?>
<!-- Generator: Adobe Illustrator 16.0.0, SVG Export Plug-In . SVG Version: 6.00 Build 0)  -->
<!DOCTYPE svg PUBLIC "-//W3C//DTD SVG 1.1//EN" "http://www.w3.org/Graphics/SVG/1.1/DTD/svg11.dtd">
<svg version="1.1" id="Layer_1" xmlns="http://www.w3.org/2000/svg" xmlns:xlink="http://www.w3.org/1999/xlink" x="0px" y="0px"
	 width="360px" height="504px" viewBox="0 0 360 504" enable-background="new 0 0 360 504" xml:space="preserve">
<circle fill="#F48791" cx="-149.393" cy="241.277" r="17.432"/>
<circle fill="#F48791" cx="-165.393" cy="275.699" r="13.584"/>
<circle fill="#F48791" cx="-145.393" cy="310.12" r="13.584"/>
<g>
	<path fill="#F15B61" d="M-350.66,325.329c0,23.358-18.936,42.297-42.295,42.297c-23.358,0-42.295-18.938-42.295-42.297
		c0-23.354,18.937-42.293,42.295-42.293C-369.595,283.036-350.66,301.975-350.66,325.329z"/>
	<path fill="#F48791" d="M-364.522,294.02c7.263,7.601,11.732,17.882,11.732,29.222c0,23.356-20.484,39.473-43.844,39.473
		c-10.948,0-19.375-1.336-26.885-8.16c7.7,8.058,18.541,13.078,30.563,13.078c23.359,0,42.295-18.938,42.295-42.297
		C-350.66,312.919-356.006,301.759-364.522,294.02z"/>
</g>
<g>
	<path fill="#F15B61" d="M-355.896,400.251c0,20.467-16.592,37.062-37.059,37.062c-20.467,0-37.058-16.6-37.058-37.062
		s16.591-37.058,37.058-37.058S-355.896,379.786-355.896,400.251z"/>
	<path fill="#F48791" d="M-368.044,372.814c6.366,6.653,10.28,15.668,10.28,25.604c0,20.467-17.947,34.584-38.414,34.584
		c-9.592,0-16.976-1.174-23.556-7.152c6.748,7.062,16.246,11.461,26.78,11.461c20.467,0,37.059-16.594,37.059-37.061
		C-355.896,389.378-360.58,379.598-368.044,372.814z"/>
</g>
<g>
	<path fill="#F15B61" d="M-360.359,464.38c0,18.004-14.594,32.598-32.596,32.598c-18.001,0-32.595-14.594-32.595-32.598
		c0-17.998,14.594-32.592,32.595-32.592C-374.953,431.788-360.359,446.382-360.359,464.38z"/>
	<path fill="#F48791" d="M-371.043,440.253c5.598,5.854,9.043,13.777,9.043,22.516c0,18.01-15.787,30.426-33.789,30.426
		c-8.438,0-14.932-1.031-20.719-6.291c5.934,6.209,14.289,10.074,23.554,10.074c18.002,0,32.596-14.594,32.596-32.598
		C-360.359,454.817-364.479,446.216-371.043,440.253z"/>
</g>
<path opacity="0.6" fill="#FFFFFF" enable-background="new    " d="M305.508,167.078c0,69.32-56.188,125.51-125.509,125.51
	c-69.317,0-125.508-56.19-125.508-125.51c0-69.314,56.19-125.506,125.508-125.506S305.508,97.763,305.508,167.078z"/>
<path opacity="0.6" fill="#FFFFFF" enable-background="new    " d="M305.508,167.078c0,69.32-56.188,125.51-125.509,125.51
	c-69.317,0-125.508-56.19-125.508-125.51c0-69.314,56.19-125.506,125.508-125.506S305.508,97.763,305.508,167.078z"/>
<path opacity="0.6" fill="#FFFFFF" enable-background="new    " d="M175.743,333.847c0,17.679-14.33,32.009-32.008,32.009
	c-17.679,0-32.009-14.33-32.009-32.009c0-17.677,14.33-32.007,32.009-32.007C161.413,301.84,175.743,316.17,175.743,333.847z"/>
<path opacity="0.6" fill="#FFFFFF" enable-background="new    " d="M228.235,378.703c0,13.323-10.802,24.125-24.123,24.125
	c-13.323,0-24.123-10.802-24.123-24.125c0-13.321,10.8-24.121,24.123-24.121C217.434,354.582,228.235,365.382,228.235,378.703z"/>
<path opacity="0.6" fill="#FFFFFF" enable-background="new    " d="M186.785,443.092c0,10.68-8.657,19.337-19.336,19.337
	c-10.68,0-19.337-8.657-19.337-19.337c0-10.679,8.657-19.336,19.337-19.336C178.128,423.756,186.785,432.413,186.785,443.092z"/>
<g>
	<text transform="matrix(1 0 0 1 87.7852 220.498)" fill="#0B108C" font-family="'BebasNeue'" font-size="156.819">PHP</text>
</g>
</svg>
