<?xml version="1.0" encoding="utf-8"?>
<!-- Generator: Adobe Illustrator 16.0.0, SVG Export Plug-In . SVG Version: 6.00 Build 0)  -->
<!DOCTYPE svg PUBLIC "-//W3C//DTD SVG 1.1//EN" "http://www.w3.org/Graphics/SVG/1.1/DTD/svg11.dtd">
<svg version="1.1" id="Layer_1" xmlns="http://www.w3.org/2000/svg" xmlns:xlink="http://www.w3.org/1999/xlink" x="0px" y="0px"
	 width="360px" height="504px" viewBox="0 0 360 504" enable-background="new 0 0 360 504" xml:space="preserve">
<circle fill="#F48791" cx="-149.393" cy="241.277" r="17.432"/>
<circle fill="#F48791" cx="-165.393" cy="275.699" r="13.584"/>
<circle fill="#F48791" cx="-145.393" cy="310.12" r="13.584"/>
<g>
	<path fill="#F15B61" d="M-350.66,325.329c0,23.358-18.936,42.297-42.295,42.297c-23.358,0-42.295-18.938-42.295-42.297
		c0-23.354,18.937-42.293,42.295-42.293C-369.595,283.036-350.66,301.975-350.66,325.329z"/>
	<path fill="#F48791" d="M-364.522,294.02c7.263,7.601,11.732,17.882,11.732,29.222c0,23.356-20.484,39.473-43.844,39.473
		c-10.948,0-19.375-1.336-26.885-8.16c7.7,8.058,18.541,13.078,30.563,13.078c23.359,0,42.295-18.938,42.295-42.297
		C-350.66,312.919-356.006,301.759-364.522,294.02z"/>
</g>
<g>
	<path fill="#F15B61" d="M-355.896,400.251c0,20.467-16.592,37.062-37.059,37.062c-20.467,0-37.058-16.6-37.058-37.062
		s16.591-37.058,37.058-37.058S-355.896,379.786-355.896,400.251z"/>
	<path fill="#F48791" d="M-368.044,372.814c6.366,6.653,10.28,15.668,10.28,25.604c0,20.467-17.947,34.584-38.414,34.584
		c-9.592,0-16.976-1.174-23.556-7.152c6.748,7.062,16.246,11.461,26.78,11.461c20.467,0,37.059-16.594,37.059-37.061
		C-355.896,389.378-360.58,379.598-368.044,372.814z"/>
</g>
<g>
	<path fill="#F15B61" d="M-360.359,464.38c0,18.004-14.594,32.598-32.596,32.598c-18.001,0-32.595-14.594-32.595-32.598
		c0-17.998,14.594-32.592,32.595-32.592C-374.953,431.788-360.359,446.382-360.359,464.38z"/>
	<path fill="#F48791" d="M-371.043,440.253c5.598,5.854,9.043,13.777,9.043,22.516c0,18.01-15.787,30.426-33.789,30.426
		c-8.438,0-14.932-1.031-20.719-6.291c5.934,6.209,14.289,10.074,23.554,10.074c18.002,0,32.596-14.594,32.596-32.598
		C-360.359,454.817-364.479,446.216-371.043,440.253z"/>
</g>
<path opacity="0.6" fill="#FFFFFF" enable-background="new    " d="M305.509,156.354c0,69.32-56.188,125.511-125.509,125.511
	c-69.317,0-125.508-56.191-125.508-125.511c0-69.314,56.19-125.506,125.508-125.506S305.509,87.04,305.509,156.354z"/>
<path opacity="0.6" fill="#FFFFFF" enable-background="new    " d="M305.509,156.354c0,69.32-56.188,125.511-125.509,125.511
	c-69.317,0-125.508-56.191-125.508-125.511c0-69.314,56.19-125.506,125.508-125.506S305.509,87.04,305.509,156.354z"/>
<path opacity="0.6" fill="#FFFFFF" enable-background="new    " d="M175.744,323.123c0,17.68-14.33,32.01-32.008,32.01
	c-17.679,0-32.009-14.33-32.009-32.01c0-17.676,14.33-32.006,32.009-32.006C161.414,291.117,175.744,305.447,175.744,323.123z"/>
<path opacity="0.6" fill="#FFFFFF" enable-background="new    " d="M228.236,367.98c0,13.322-10.802,24.125-24.123,24.125
	c-13.323,0-24.123-10.803-24.123-24.125s10.8-24.121,24.123-24.121C217.435,343.859,228.236,354.658,228.236,367.98z"/>
<path opacity="0.6" fill="#FFFFFF" enable-background="new    " d="M186.786,432.369c0,10.68-8.657,19.336-19.336,19.336
	c-10.68,0-19.337-8.656-19.337-19.336s8.657-19.336,19.337-19.336C178.129,413.033,186.786,421.689,186.786,432.369z"/>
<g>
	<g>
		<g id="XMLID_22_">
			<path id="XMLID_24_" fill="#0B108C" d="M135.301,216.141v-41.185c2.196,0.214,4.787,0.325,7.614,0.325
				c17.233,0,31.166-4.545,40.299-13.15c7.48-7.107,11.602-17.695,11.602-29.813c0-11.769-4.922-22.411-13.496-29.191
				c-8.429-6.742-20.814-10.02-37.866-10.02c-14.771,0-27.252,0.85-37.101,2.526c-0.807,0.136-1.396,0.835-1.396,1.653v118.854
				c0,0.927,0.751,1.677,1.678,1.677h26.989C134.55,217.818,135.301,217.068,135.301,216.141z M135.301,150.593v-32.842
				c1.647-0.316,4.742-0.734,9.581-0.734c12.45,0,19.591,5.837,19.591,16.016c0,11.259-8.125,17.982-21.735,17.982
				C139.472,151.015,137.146,150.886,135.301,150.593z"/>
			<path id="XMLID_23_" fill="#0B108C" d="M243.724,161.117c-11.12-3.891-12.996-5.744-12.996-8.424
				c0-4.761,5.443-5.471,8.688-5.471c6.892,0,14.08,2.585,18.142,4.798c0.455,0.248,0.996,0.272,1.472,0.066
				c0.474-0.207,0.827-0.621,0.956-1.122l4.826-18.764c0.197-0.766-0.168-1.565-0.875-1.918c-5.01-2.505-14.316-5.182-25.415-5.182
				c-21.93,0-37.245,12.449-37.245,30.245c-0.148,8.683,4.239,20.571,25.99,27.892c10.565,3.522,11.722,5.353,11.722,8.417
				c0,1.397,0,5.65-9.939,5.65c-7.445,0-17.498-3.307-22.542-6.37c-0.458-0.277-1.018-0.32-1.512-0.116
				c-0.492,0.203-0.859,0.629-0.988,1.147l-4.825,19.483c-0.185,0.742,0.158,1.515,0.831,1.879
				c7.381,3.989,17.965,6.278,29.036,6.278c24.407,0,39.568-11.464,39.568-29.939C268.424,175.78,260.743,166.974,243.724,161.117z"
				/>
		</g>
	</g>
</g>
</svg>
