<?xml version="1.0" encoding="utf-8"?>
<!-- Generator: Adobe Illustrator 16.0.0, SVG Export Plug-In . SVG Version: 6.00 Build 0)  -->
<!DOCTYPE svg PUBLIC "-//W3C//DTD SVG 1.1//EN" "http://www.w3.org/Graphics/SVG/1.1/DTD/svg11.dtd">
<svg version="1.1" id="Layer_1" xmlns="http://www.w3.org/2000/svg" xmlns:xlink="http://www.w3.org/1999/xlink" x="0px" y="0px"
	 width="360px" height="504px" viewBox="0 0 360 504" enable-background="new 0 0 360 504" xml:space="preserve">
<path opacity="0.6" fill="#FFFFFF" enable-background="new    " d="M298.223,156.355c0,69.32-56.19,125.51-125.509,125.51
	c-69.317,0-125.508-56.19-125.508-125.51c0-69.314,56.191-125.506,125.508-125.506C242.031,30.849,298.223,87.04,298.223,156.355z"
	/>
<path opacity="0.6" fill="#FF0000" enable-background="new    " d="M298.223,156.355c0,69.32-56.19,125.51-125.509,125.51
	c-69.317,0-125.508-56.19-125.508-125.51c0-69.314,56.191-125.506,125.508-125.506C242.031,30.849,298.223,87.04,298.223,156.355z"
	/>
<circle fill="#F48791" cx="-149.393" cy="241.277" r="17.432"/>
<circle fill="#F48791" cx="-165.393" cy="275.699" r="13.584"/>
<circle fill="#F48791" cx="-145.393" cy="310.12" r="13.584"/>
<g>
	<path fill="#F15B61" d="M-350.66,325.329c0,23.358-18.936,42.297-42.295,42.297c-23.358,0-42.295-18.938-42.295-42.297
		c0-23.354,18.937-42.293,42.295-42.293C-369.595,283.036-350.66,301.975-350.66,325.329z"/>
	<path fill="#F48791" d="M-364.522,294.02c7.263,7.598,11.732,17.881,11.732,29.22c0,23.358-20.484,39.472-43.844,39.472
		c-10.948,0-19.375-1.336-26.885-8.16c7.7,8.055,18.541,13.078,30.563,13.078c23.359,0,42.295-18.938,42.295-42.297
		C-350.66,312.919-356.006,301.759-364.522,294.02z"/>
</g>
<g>
	<path fill="#F15B61" d="M-355.896,400.251c0,20.467-16.592,37.062-37.059,37.062c-20.467,0-37.058-16.597-37.058-37.062
		c0-20.465,16.591-37.058,37.058-37.058S-355.896,379.786-355.896,400.251z"/>
	<path fill="#F48791" d="M-368.044,372.814c6.366,6.655,10.28,15.668,10.28,25.604c0,20.467-17.947,34.584-38.414,34.584
		c-9.592,0-16.976-1.174-23.556-7.152c6.748,7.062,16.246,11.461,26.78,11.461c20.467,0,37.059-16.594,37.059-37.061
		C-355.896,389.378-360.58,379.598-368.044,372.814z"/>
</g>
<g>
	<path fill="#F15B61" d="M-360.359,464.38c0,18.004-14.594,32.598-32.596,32.598c-18.001,0-32.595-14.594-32.595-32.598
		c0-17.998,14.594-32.592,32.595-32.592C-374.953,431.788-360.359,446.382-360.359,464.38z"/>
	<path fill="#F48791" d="M-371.043,440.253c5.598,5.854,9.043,13.777,9.043,22.516c0,18.007-15.787,30.423-33.789,30.423
		c-8.438,0-14.932-1.031-20.719-6.291c5.934,6.209,14.289,10.077,23.554,10.077c18.002,0,32.596-14.594,32.596-32.598
		C-360.359,454.817-364.479,446.216-371.043,440.253z"/>
</g>
<path opacity="0.6" fill="#FFFFFF" enable-background="new    " d="M168.458,323.124c0,17.679-14.33,32.009-32.008,32.009
	c-17.678,0-32.008-14.33-32.008-32.009c0-17.677,14.33-32.007,32.008-32.007C154.128,291.117,168.458,305.447,168.458,323.124z"/>
<path opacity="0.6" fill="#FFFFFF" enable-background="new    " d="M220.95,367.98c0,13.324-10.802,24.125-24.123,24.125
	c-13.323,0-24.123-10.801-24.123-24.125c0-13.321,10.8-24.121,24.123-24.121C210.148,343.859,220.95,354.659,220.95,367.98z"/>
<path opacity="0.6" fill="#FFFFFF" enable-background="new    " d="M179.5,432.369c0,10.68-8.657,19.337-19.336,19.337
	c-10.68,0-19.337-8.657-19.337-19.337c0-10.679,8.657-19.336,19.337-19.336C170.843,413.033,179.5,421.69,179.5,432.369z"/>
<g>
	<g id="XMLID_106_">
		<path id="XMLID_107_" fill="#FFFFFF" d="M102.198,82.495c-1.546,0-2.698,1.26-2.561,2.8L112.672,231.5
			c0.137,1.54,1.468,3.138,2.958,3.552l55.312,15.358c1.49,0.414,3.928,0.414,5.418,0.001l55.479-15.383
			c1.49-0.413,2.823-2.011,2.961-3.55l13.056-146.183c0.138-1.54-1.015-2.8-2.56-2.8H102.198z M220.098,116.026
			c-0.123,1.374-0.337,3.758-0.473,5.298l-0.345,3.836c-0.138,1.539-0.335,3.741-0.438,4.892c-0.104,1.151-0.202,2.093-0.22,2.093
			s-1.297,0-2.843,0h-39.221c-1.546,0-2.824,0-2.842,0c-0.017,0-1.296,0-2.842,0h-20.656c-1.546,0-2.698,1.26-2.561,2.8
			l1.205,13.468c0.137,1.539,1.515,2.8,3.061,2.8h18.952c1.546,0,2.824,0,2.842,0c0.017,0,1.295,0,2.841,0h32.575
			c1.546,0,3.938,0,5.316,0c1.376,0,2.402,1.124,2.278,2.498c-0.126,1.373-0.34,3.758-0.478,5.297l-3.874,43.42
			c-0.139,1.54-0.312,3.507-0.39,4.372c-0.075,0.864-1.356,1.909-2.847,2.322l-32.685,9.063c-1.489,0.413-2.728,0.754-2.751,0.76
			c-0.022,0.004-1.261-0.33-2.751-0.743l-32.718-9.079c-1.49-0.413-2.821-2.012-2.959-3.552l-2.106-23.638
			c-0.137-1.54,1.016-2.8,2.562-2.8h2.986c1.546,0,4.077,0,5.623,0h4.452c1.546,0,2.923,1.26,3.062,2.8l0.826,9.253
			c0.137,1.541,1.47,3.129,2.964,3.533l15.304,4.133c1.492,0.403,2.719,0.733,2.726,0.733s1.233-0.33,2.726-0.734l15.331-4.143
			c1.493-0.403,2.827-1.993,2.965-3.532l1.663-18.54c0.139-1.54-1.014-2.8-2.561-2.8h-17.24c-1.546,0-2.824,0-2.841,0
			c-0.018,0-1.296,0-2.842,0h-35.977c-1.546,0-2.922-1.261-3.06-2.8l-4.08-45.712c-0.137-1.54-0.35-3.924-0.473-5.298
			c-0.122-1.373,1.042-2.497,2.588-2.497h41.001c1.546,0,2.824,0,2.842,0c0.017,0,1.295,0,2.841,0h40.951
			C219.056,113.528,220.22,114.652,220.098,116.026z"/>
	</g>
	<g>
	</g>
	<g>
	</g>
	<g>
	</g>
	<g>
	</g>
	<g>
	</g>
	<g>
	</g>
	<g>
	</g>
	<g>
	</g>
	<g>
	</g>
	<g>
	</g>
	<g>
	</g>
	<g>
	</g>
	<g>
	</g>
	<g>
	</g>
	<g>
	</g>
</g>
</svg>
