<?xml version="1.0" encoding="utf-8"?>
<!-- Generator: Adobe Illustrator 16.0.0, SVG Export Plug-In . SVG Version: 6.00 Build 0)  -->
<!DOCTYPE svg PUBLIC "-//W3C//DTD SVG 1.1//EN" "http://www.w3.org/Graphics/SVG/1.1/DTD/svg11.dtd">
<svg version="1.1" id="Layer_1" xmlns="http://www.w3.org/2000/svg" xmlns:xlink="http://www.w3.org/1999/xlink" x="0px" y="0px"
	 width="360px" height="504px" viewBox="0 0 360 504" enable-background="new 0 0 360 504" xml:space="preserve">
<path opacity="0.6" fill="#FFFFFF" enable-background="new    " d="M296.771,156.354c0,69.32-56.189,125.511-125.509,125.511
	c-69.317,0-125.508-56.191-125.508-125.511c0-69.314,56.19-125.506,125.508-125.506S296.771,87.04,296.771,156.354z"/>
<path opacity="0.6" fill="#FFFFFF" enable-background="new    " d="M296.771,156.354c0,69.32-56.189,125.511-125.509,125.511
	c-69.317,0-125.508-56.191-125.508-125.511c0-69.314,56.19-125.506,125.508-125.506S296.771,87.04,296.771,156.354z"/>
<circle fill="#F48791" cx="-149.393" cy="241.277" r="17.432"/>
<circle fill="#F48791" cx="-165.393" cy="275.699" r="13.584"/>
<circle fill="#F48791" cx="-145.393" cy="310.12" r="13.584"/>
<g>
	<path fill="#F15B61" d="M-350.66,325.329c0,23.358-18.936,42.297-42.295,42.297c-23.358,0-42.295-18.938-42.295-42.297
		c0-23.354,18.937-42.293,42.295-42.293C-369.595,283.036-350.66,301.975-350.66,325.329z"/>
	<path fill="#F48791" d="M-364.522,294.02c7.263,7.599,11.732,17.882,11.732,29.221c0,23.357-20.484,39.472-43.844,39.472
		c-10.948,0-19.375-1.336-26.885-8.16c7.7,8.056,18.541,13.078,30.563,13.078c23.359,0,42.295-18.938,42.295-42.297
		C-350.66,312.919-356.006,301.759-364.522,294.02z"/>
</g>
<g>
	<path fill="#F15B61" d="M-355.896,400.251c0,20.467-16.592,37.062-37.059,37.062c-20.467,0-37.058-16.598-37.058-37.062
		s16.591-37.058,37.058-37.058S-355.896,379.786-355.896,400.251z"/>
	<path fill="#F48791" d="M-368.044,372.814c6.366,6.654,10.28,15.668,10.28,25.604c0,20.467-17.947,34.584-38.414,34.584
		c-9.592,0-16.976-1.174-23.556-7.152c6.748,7.062,16.246,11.461,26.78,11.461c20.467,0,37.059-16.594,37.059-37.061
		C-355.896,389.378-360.58,379.598-368.044,372.814z"/>
</g>
<g>
	<path fill="#F15B61" d="M-360.359,464.38c0,18.004-14.594,32.598-32.596,32.598c-18.001,0-32.595-14.594-32.595-32.598
		c0-17.998,14.594-32.592,32.595-32.592C-374.953,431.788-360.359,446.382-360.359,464.38z"/>
	<path fill="#F48791" d="M-371.043,440.253c5.598,5.854,9.043,13.777,9.043,22.516c0,18.008-15.787,30.424-33.789,30.424
		c-8.438,0-14.932-1.031-20.719-6.291c5.934,6.209,14.289,10.076,23.554,10.076c18.002,0,32.596-14.594,32.596-32.598
		C-360.359,454.817-364.479,446.216-371.043,440.253z"/>
</g>
<path opacity="0.6" fill="#FFFFFF" enable-background="new    " d="M167.007,323.123c0,17.68-14.33,32.01-32.008,32.01
	c-17.679,0-32.009-14.33-32.009-32.01c0-17.676,14.33-32.006,32.009-32.006C152.677,291.117,167.007,305.447,167.007,323.123z"/>
<path opacity="0.6" fill="#FFFFFF" enable-background="new    " d="M219.499,367.98c0,13.322-10.802,24.125-24.123,24.125
	c-13.323,0-24.123-10.803-24.123-24.125s10.8-24.121,24.123-24.121C208.697,343.859,219.499,354.658,219.499,367.98z"/>
<path opacity="0.6" fill="#FFFFFF" enable-background="new    " d="M178.049,432.369c0,10.68-8.657,19.336-19.336,19.336
	c-10.68,0-19.337-8.656-19.337-19.336s8.657-19.336,19.337-19.336C169.392,413.033,178.049,421.689,178.049,432.369z"/>
<g>
	<g id="XMLID_106_">
		<path id="XMLID_107_" fill="#0B108C" d="M100.747,82.495c-1.546,0-2.698,1.26-2.562,2.8L111.221,231.5
			c0.137,1.54,1.469,3.138,2.958,3.552l55.312,15.358c1.49,0.414,3.929,0.414,5.418,0.001l55.479-15.383
			c1.49-0.413,2.823-2.011,2.961-3.55l13.056-146.183c0.139-1.54-1.015-2.8-2.56-2.8H100.747z M218.646,116.025
			c-0.123,1.374-0.337,3.758-0.473,5.298l-0.346,3.836c-0.137,1.539-0.334,3.741-0.438,4.892c-0.104,1.151-0.201,2.093-0.22,2.093
			s-1.297,0-2.843,0h-39.221c-1.547,0-2.824,0-2.843,0c-0.017,0-1.296,0-2.842,0h-20.656c-1.546,0-2.698,1.26-2.561,2.8
			l1.204,13.468c0.138,1.539,1.516,2.8,3.062,2.8h18.952c1.546,0,2.824,0,2.842,0s1.295,0,2.842,0h32.574c1.547,0,3.938,0,5.316,0
			c1.376,0,2.402,1.124,2.277,2.498c-0.125,1.373-0.34,3.758-0.478,5.297l-3.874,43.42c-0.139,1.54-0.312,3.507-0.391,4.372
			c-0.074,0.864-1.355,1.909-2.846,2.322l-32.686,9.063c-1.489,0.413-2.729,0.754-2.751,0.76c-0.022,0.004-1.261-0.33-2.751-0.743
			l-32.719-9.079c-1.489-0.413-2.82-2.012-2.959-3.552l-2.105-23.638c-0.137-1.54,1.016-2.8,2.562-2.8h2.985
			c1.546,0,4.077,0,5.623,0h4.452c1.546,0,2.923,1.26,3.062,2.8l0.825,9.253c0.138,1.541,1.47,3.129,2.964,3.533l15.305,4.133
			c1.492,0.403,2.719,0.733,2.726,0.733s1.233-0.33,2.726-0.734l15.332-4.143c1.492-0.403,2.826-1.993,2.965-3.532l1.662-18.54
			c0.14-1.54-1.014-2.8-2.561-2.8h-17.24c-1.546,0-2.824,0-2.841,0c-0.019,0-1.296,0-2.842,0h-35.978c-1.545,0-2.922-1.261-3.06-2.8
			l-4.08-45.712c-0.137-1.54-0.351-3.924-0.473-5.298c-0.122-1.373,1.042-2.497,2.588-2.497h41.001c1.546,0,2.824,0,2.842,0
			s1.295,0,2.842,0h40.95C217.605,113.527,218.77,114.651,218.646,116.025z"/>
	</g>
</g>
</svg>
