<?xml version="1.0" encoding="utf-8"?>
<!-- Generator: Adobe Illustrator 16.0.0, SVG Export Plug-In . SVG Version: 6.00 Build 0)  -->
<!DOCTYPE svg PUBLIC "-//W3C//DTD SVG 1.1//EN" "http://www.w3.org/Graphics/SVG/1.1/DTD/svg11.dtd">
<svg version="1.1" id="Layer_1" xmlns="http://www.w3.org/2000/svg" xmlns:xlink="http://www.w3.org/1999/xlink" x="0px" y="0px"
	 width="1024px" height="300px" viewBox="0 0 1024 300" enable-background="new 0 0 1024 300" xml:space="preserve">
<path fill="#411E11" stroke="#753518" stroke-width="29" stroke-miterlimit="10" d="M682.94,121.198
	c0,2.808-3.114,5.084-6.954,5.084H339.602c-3.84,0-6.954-2.276-6.954-5.084V23.339c0-2.807,3.114-5.084,6.954-5.084h336.385
	c3.84,0,6.954,2.277,6.954,5.084V121.198z"/>
<path fill="#411E11" stroke="#753518" stroke-width="29" stroke-miterlimit="10" d="M682.94,273.231c0,3.84-3.114,6.953-6.954,6.953
	H339.602c-3.84,0-6.954-3.113-6.954-6.953v-133.86c0-3.84,3.114-6.953,6.954-6.953h336.385c3.84,0,6.954,3.113,6.954,6.953V273.231z
	"/>
<line fill="#FFFFFF" stroke="#753518" stroke-width="29" stroke-miterlimit="10" x1="509.914" y1="132.418" x2="509.914" y2="280.185"/>
<path fill="#341810" d="M347.49,33.027c0,0,88.702,33.132,0,89.618"/>
<path fill="#341810" d="M667.622,33.36c0,0-80.456,31.315,0,84.706"/>
<path fill="#562513" d="M528.222,156.992c0,3.841-3.114,6.956-6.954,6.956h-26.946c-3.841,0-6.954-3.115-6.954-6.956v-24.336
	c0-3.841,3.113-6.954,6.954-6.954h26.946c3.84,0,6.954,3.113,6.954,6.954V156.992z"/>
<path fill="#9C3D22" d="M688.157,129.205c0,5.616-5.476,10.167-12.229,10.167H339.66c-6.753,0-12.229-4.55-12.229-10.167l0,0
	c0-5.616,5.475-10.167,12.229-10.167h336.269C682.682,119.038,688.157,123.589,688.157,129.205L688.157,129.205z"/>
<path fill="#FDB813" d="M556.729,127.664c0,3.467-1.952,6.28-4.358,6.28h-32.137c-2.407,0-4.359-2.813-4.359-6.28v-3.924
	c0-3.468,1.952-6.281,4.359-6.281h32.137c2.406,0,4.358,2.813,4.358,6.281V127.664z"/>
<path fill="#753518" d="M528.222,154.553c0,4.229-3.114,7.656-6.954,7.656h-26.946c-3.841,0-6.954-3.428-6.954-7.656v-26.79
	c0-4.227,3.113-7.654,6.954-7.654h26.946c3.84,0,6.954,3.428,6.954,7.654V154.553z"/>
<g>
	<circle fill="#121110" cx="507.794" cy="133.675" r="8.081"/>
	<rect x="503.24" y="140.247" fill="#121110" width="9.642" height="16.477"/>
</g>
<path fill="#FDB813" d="M380.701,125.177c0,3.467-1.951,6.278-4.358,6.278h-32.137c-2.407,0-4.358-2.811-4.358-6.278v-3.926
	c0-3.468,1.951-6.277,4.358-6.277h32.137c2.407,0,4.358,2.81,4.358,6.277V125.177z"/>
<path fill="#D18E29" d="M426.767,128.245c0,3.466-1.951,6.279-4.358,6.279h-32.137c-2.406,0-4.358-2.812-4.358-6.279v-3.926
	c0-3.468,1.952-6.28,4.358-6.28h32.137c2.407,0,4.358,2.812,4.358,6.28V128.245z"/>
<path fill="#FDB813" d="M482.104,121.001c0,3.466-1.951,6.279-4.358,6.279H445.61c-2.407,0-4.358-2.813-4.358-6.279v-3.926
	c0-3.468,1.951-6.28,4.358-6.28h32.137c2.407,0,4.358,2.812,4.358,6.28V121.001z"/>
<path fill="#FDB813" d="M677.171,125.177c0,3.467-1.951,6.278-4.36,6.278h-32.137c-2.405,0-4.357-2.811-4.357-6.278v-3.926
	c0-3.468,1.952-6.279,4.357-6.279h32.137c2.409,0,4.36,2.811,4.36,6.279V125.177z"/>
<path fill="#D18E29" d="M385.913,108.693c0,3.468-1.95,6.28-4.357,6.28h-32.137c-2.407,0-4.358-2.812-4.358-6.28v-3.926
	c0-3.468,1.951-6.279,4.358-6.279h32.137c2.407,0,4.357,2.811,4.357,6.279V108.693z"/>
<path fill="#D18E29" d="M487.368,104.506c0,3.468-1.951,6.281-4.357,6.281h-32.137c-2.407,0-4.358-2.813-4.358-6.281v-3.924
	c0-3.467,1.951-6.28,4.358-6.28h32.137c2.407,0,4.357,2.813,4.357,6.28V104.506z"/>
<path fill="#FDB813" d="M430.434,112.75c0,3.466-1.951,6.279-4.358,6.279h-32.137c-2.407,0-4.358-2.813-4.358-6.279v-3.926
	c0-3.467,1.951-6.279,4.358-6.279h32.137c2.407,0,4.358,2.812,4.358,6.279V112.75z"/>
<path fill="#D18E29" d="M487.368,129.243c0,3.468-1.951,6.279-4.357,6.279h-32.137c-2.407,0-4.358-2.811-4.358-6.279v-3.926
	c0-3.467,1.951-6.279,4.358-6.279h32.137c2.407,0,4.357,2.812,4.357,6.279V129.243z"/>
<path fill="#D18E29" d="M612.246,120.992c0,3.468-1.951,6.279-4.357,6.279H575.75c-2.406,0-4.357-2.811-4.357-6.279v-3.926
	c0-3.468,1.951-6.279,4.357-6.279h32.139c2.406,0,4.357,2.811,4.357,6.279V120.992z"/>
<path fill="#FDB813" d="M621.66,133.418c0,3.467-1.951,6.279-4.358,6.279h-32.139c-2.405,0-4.356-2.812-4.356-6.279v-3.926
	c0-3.466,1.951-6.279,4.356-6.279h32.139c2.407,0,4.358,2.813,4.358,6.279V133.418z"/>
<path fill="#FDB813" d="M601.233,104.506c0,3.468-1.95,6.281-4.358,6.281h-32.137c-2.406,0-4.357-2.813-4.357-6.281v-3.924
	c0-3.467,1.951-6.279,4.357-6.279h32.137c2.408,0,4.358,2.812,4.358,6.279V104.506z"/>
<path fill="#D18E29" d="M544.092,112.75c0,3.468-1.948,6.279-4.357,6.279h-32.136c-2.407,0-4.358-2.811-4.358-6.279v-3.926
	c0-3.467,1.951-6.279,4.358-6.279h32.136c2.409,0,4.357,2.812,4.357,6.279V112.75z"/>
<path fill="#FDB813" d="M653.101,108.563c0,3.468-1.952,6.28-4.36,6.28h-32.137c-2.405,0-4.357-2.812-4.357-6.28v-3.926
	c0-3.468,1.952-6.279,4.357-6.279h32.137c2.408,0,4.36,2.811,4.36,6.279V108.563z"/>
<path fill="#FDB813" d="M475.192,113.47c0,3.468-1.95,6.279-4.358,6.279h-32.137c-2.406,0-4.357-2.811-4.357-6.279v-3.926
	c0-3.466,1.951-6.277,4.357-6.277h32.137c2.408,0,4.358,2.811,4.358,6.277V113.47z"/>
<circle fill="#411E11" cx="332.647" cy="163.946" r="5.446"/>
<circle fill="#411E11" cx="332.647" cy="195.433" r="5.446"/>
<circle fill="#411E11" cx="332.647" cy="226.919" r="5.446"/>
<circle fill="#411E11" cx="332.647" cy="258.406" r="5.446"/>
<circle fill="#411E11" cx="353.22" cy="280.185" r="5.446"/>
<circle fill="#411E11" cx="392.433" cy="280.185" r="5.446"/>
<circle fill="#411E11" cx="431.646" cy="280.185" r="5.446"/>
<circle fill="#411E11" cx="470.859" cy="280.185" r="5.446"/>
<circle fill="#411E11" cx="509.914" cy="280.185" r="5.445"/>
<circle fill="#411E11" cx="549.32" cy="280.185" r="5.445"/>
<circle fill="#411E11" cx="585.346" cy="280.185" r="5.446"/>
<circle fill="#411E11" cx="621.372" cy="280.185" r="5.445"/>
<circle fill="#411E11" cx="657.399" cy="280.185" r="5.445"/>
<circle fill="#411E11" cx="682.94" cy="256.135" r="5.446"/>
<circle fill="#411E11" cx="682.94" cy="222.996" r="5.446"/>
<circle fill="#411E11" cx="682.94" cy="189.86" r="5.446"/>
<circle fill="#411E11" cx="682.616" cy="156.723" r="5.445"/>
<circle fill="#411E11" cx="509.914" cy="247.515" r="5.445"/>
<circle fill="#411E11" cx="509.914" cy="213.873" r="5.445"/>
<circle fill="#411E11" cx="509.914" cy="180.231" r="5.445"/>
<g id="XntjVL_1_">
	
		<image overflow="visible" width="800" height="600" id="XntjVL" xlink:href="13967C2E3B696F21.jpg"  transform="matrix(1 0 0 1 -982.3335 -172.2124)">
	</image>
</g>
<path fill="#12555E" d="M254.331,301.853c0,3.683-2.985,6.667-6.667,6.667l0,0c-3.682,0-6.667-2.984-6.667-6.667V222.52
	c0-3.683,2.985-6.667,6.667-6.667l0,0c3.682,0,6.667,2.984,6.667,6.667V301.853z"/>
<path fill="#12555E" d="M272.997,303.243c0,2.915-2.985,5.276-6.667,5.276l0,0c-3.682,0-6.667-2.361-6.667-5.276v-62.78
	c0-2.915,2.985-5.276,6.667-5.276l0,0c3.682,0,6.667,2.361,6.667,5.276V303.243z"/>
<path fill="#12555E" d="M279.664,305.186c0,1.842-2.985,3.334-6.667,3.334l0,0c-3.682,0-6.667-1.492-6.667-3.334V265.52
	c0-1.842,2.985-3.333,6.667-3.333l0,0c3.682,0,6.667,1.491,6.667,3.333V305.186z"/>
<path fill="#12555E" d="M260.998,308.52c0,1.842-2.985,3.334-6.667,3.334l0,0c-3.682,0-6.667-1.492-6.667-3.334v-39.666
	c0-1.842,2.985-3.333,6.667-3.333l0,0c3.682,0,6.667,1.491,6.667,3.333V308.52z"/>
<path fill="#12555E" d="M289.664,302.571c0,3.286-2.985,5.948-6.667,5.948l0,0c-3.682,0-6.667-2.662-6.667-5.948v-70.772
	c0-3.286,2.985-5.946,6.667-5.946l0,0c3.682,0,6.667,2.66,6.667,5.946V302.571z"/>
<path fill="#12555E" d="M731.499,299.852c0,5.335-4.325,9.658-9.66,9.658l0,0c-5.334,0-9.657-4.323-9.657-9.658V184.919
	c0-5.335,4.323-9.658,9.657-9.658l0,0c5.335,0,9.66,4.323,9.66,9.658V299.852z"/>
<path fill="#12555E" d="M758.541,301.866c0,4.223-4.323,7.644-9.658,7.644l0,0c-5.334,0-9.659-3.421-9.659-7.644v-90.952
	c0-4.223,4.325-7.644,9.659-7.644l0,0c5.335,0,9.658,3.421,9.658,7.644V301.866z"/>
<path fill="#12555E" d="M768.199,304.68c0,2.669-4.324,4.83-9.658,4.83l0,0c-5.334,0-9.657-2.161-9.657-4.83v-57.465
	c0-2.668,4.323-4.829,9.657-4.829l0,0c5.334,0,9.658,2.161,9.658,4.829V304.68z"/>
<path fill="#12555E" d="M743.441,320.361c0,3.995-4.325,7.232-9.659,7.232l0,0c-5.333,0-9.657-3.237-9.657-7.232V234.31
	c0-3.996,4.324-7.231,9.657-7.231l0,0c5.334,0,9.659,3.235,9.659,7.231V320.361z"/>
<path fill="#12555E" d="M782.686,300.893c0,4.761-4.323,8.617-9.657,8.617l0,0c-5.334,0-9.659-3.856-9.659-8.617v-102.53
	c0-4.761,4.325-8.614,9.659-8.614l0,0c5.334,0,9.657,3.854,9.657,8.614V300.893z"/>
<path fill="#12555E" d="M800.251,294.539c0,5.335-4.324,9.658-9.659,9.658l0,0c-5.334,0-9.658-4.323-9.658-9.658V179.607
	c0-5.336,4.324-9.659,9.658-9.659l0,0c5.335,0,9.659,4.323,9.659,9.659V294.539z"/>
<rect x="187.943" y="167.432" fill="#D75E75" width="4.5" height="135"/>
<g>
	<ellipse fill="#D75E75" cx="190.36" cy="160.349" rx="4" ry="14"/>
	<ellipse fill="#D75E75" cx="190.193" cy="154.849" rx="7.167" ry="14.334"/>
</g>
<g>
	<g>
		<ellipse fill="#D75E75" cx="203.361" cy="189.682" rx="14" ry="4"/>
		<ellipse fill="#D75E75" cx="208.861" cy="189.515" rx="14.334" ry="7.167"/>
	</g>
	<g>
		<ellipse fill="#D75E75" cx="176.108" cy="189.348" rx="14" ry="4"/>
		<ellipse fill="#D75E75" cx="170.608" cy="189.515" rx="14.334" ry="7.167"/>
	</g>
</g>
<g>
	<g>
		<ellipse fill="#D75E75" cx="203.361" cy="213.682" rx="14" ry="4"/>
		<ellipse fill="#D75E75" cx="208.861" cy="213.515" rx="14.334" ry="7.167"/>
	</g>
	<g>
		<ellipse fill="#D75E75" cx="176.108" cy="213.348" rx="14" ry="4"/>
		<ellipse fill="#D75E75" cx="170.608" cy="213.515" rx="14.334" ry="7.167"/>
	</g>
</g>
<g>
	<g>
		<ellipse fill="#D75E75" cx="203.361" cy="237.682" rx="14" ry="4"/>
		<ellipse fill="#D75E75" cx="208.861" cy="237.515" rx="14.334" ry="7.167"/>
	</g>
	<g>
		<ellipse fill="#D75E75" cx="176.108" cy="237.348" rx="14" ry="4"/>
		<ellipse fill="#D75E75" cx="170.608" cy="237.515" rx="14.334" ry="7.167"/>
	</g>
</g>
<g>
	<g>
		<ellipse fill="#D75E75" cx="203.361" cy="261.682" rx="14" ry="4"/>
		<ellipse fill="#D75E75" cx="208.861" cy="261.515" rx="14.334" ry="7.167"/>
	</g>
	<g>
		<ellipse fill="#D75E75" cx="176.108" cy="261.348" rx="14" ry="4"/>
		<ellipse fill="#D75E75" cx="170.608" cy="261.515" rx="14.334" ry="7.167"/>
	</g>
</g>
<g>
	<g>
		<ellipse fill="#D75E75" cx="203.361" cy="285.682" rx="14" ry="4"/>
		<ellipse fill="#D75E75" cx="208.861" cy="285.515" rx="14.334" ry="7.167"/>
	</g>
	<g>
		<ellipse fill="#D75E75" cx="176.108" cy="285.348" rx="14" ry="4"/>
		<ellipse fill="#D75E75" cx="170.608" cy="285.515" rx="14.334" ry="7.167"/>
	</g>
</g>
<g>
	
		<ellipse transform="matrix(0.7071 0.7071 -0.7071 0.7071 180.272 -91.808)" fill="#D75E75" cx="200.958" cy="171.704" rx="4" ry="14"/>
	
		<ellipse transform="matrix(0.7071 0.7071 -0.7071 0.7071 178.5365 -95.6473)" fill="#D75E75" cx="204.729" cy="167.696" rx="7.167" ry="14.334"/>
</g>
<g>
	
		<ellipse transform="matrix(0.7071 -0.7071 0.7071 0.7071 -68.6668 176.4238)" fill="#D75E75" cx="178.629" cy="171.1" rx="4" ry="14"/>
	
		<ellipse transform="matrix(0.7071 -0.7071 0.7071 0.7071 -67.1741 172.4857)" fill="#D75E75" cx="174.622" cy="167.329" rx="7.166" ry="14.334"/>
</g>
<rect x="868.021" y="118.587" fill="#D75E75" width="6.122" height="183.679"/>
<g>
	<ellipse fill="#D75E75" cx="871.309" cy="108.95" rx="5.443" ry="19.048"/>
	<ellipse fill="#D75E75" cx="871.081" cy="101.467" rx="9.751" ry="19.503"/>
</g>
<g>
	<g>
		<ellipse fill="#D75E75" cx="888.998" cy="148.86" rx="19.049" ry="5.442"/>
		<ellipse fill="#D75E75" cx="896.481" cy="148.633" rx="19.503" ry="9.751"/>
	</g>
	<g>
		<ellipse fill="#D75E75" cx="851.918" cy="148.405" rx="19.049" ry="5.442"/>
		<ellipse fill="#D75E75" cx="844.436" cy="148.633" rx="19.502" ry="9.751"/>
	</g>
</g>
<g>
	<g>
		<ellipse fill="#D75E75" cx="888.998" cy="181.514" rx="19.049" ry="5.442"/>
		<ellipse fill="#D75E75" cx="896.481" cy="181.287" rx="19.503" ry="9.751"/>
	</g>
	<g>
		<ellipse fill="#D75E75" cx="851.918" cy="181.06" rx="19.049" ry="5.442"/>
		<ellipse fill="#D75E75" cx="844.436" cy="181.287" rx="19.502" ry="9.751"/>
	</g>
</g>
<g>
	<g>
		<ellipse fill="#D75E75" cx="888.998" cy="214.168" rx="19.049" ry="5.442"/>
		<ellipse fill="#D75E75" cx="896.481" cy="213.941" rx="19.503" ry="9.751"/>
	</g>
	<g>
		<ellipse fill="#D75E75" cx="851.918" cy="213.714" rx="19.049" ry="5.442"/>
		<ellipse fill="#D75E75" cx="844.436" cy="213.941" rx="19.502" ry="9.751"/>
	</g>
</g>
<g>
	<g>
		<ellipse fill="#D75E75" cx="888.998" cy="246.822" rx="19.049" ry="5.442"/>
		<ellipse fill="#D75E75" cx="896.481" cy="246.595" rx="19.503" ry="9.751"/>
	</g>
	<g>
		<ellipse fill="#D75E75" cx="851.918" cy="246.367" rx="19.049" ry="5.442"/>
		<ellipse fill="#D75E75" cx="844.436" cy="246.595" rx="19.502" ry="9.751"/>
	</g>
</g>
<g>
	<g>
		<ellipse fill="#D75E75" cx="888.998" cy="279.476" rx="19.049" ry="5.442"/>
		<ellipse fill="#D75E75" cx="896.481" cy="279.249" rx="19.503" ry="9.751"/>
	</g>
	<g>
		<ellipse fill="#D75E75" cx="851.918" cy="279.021" rx="19.049" ry="5.442"/>
		<ellipse fill="#D75E75" cx="844.436" cy="279.249" rx="19.502" ry="9.751"/>
	</g>
</g>
<g>
	
		<ellipse transform="matrix(0.7071 0.7072 -0.7072 0.7071 347.433 -589.9034)" fill="#D75E75" cx="885.729" cy="124.399" rx="5.442" ry="19.049"/>
	
		<ellipse transform="matrix(0.7071 0.7071 -0.7071 0.7071 345.0351 -595.0938)" fill="#D75E75" cx="890.859" cy="118.947" rx="9.75" ry="19.503"/>
</g>
<g>
	
		<ellipse transform="matrix(0.7071 -0.7071 0.7071 0.7071 163.1429 641.018)" fill="#D75E75" cx="855.349" cy="123.578" rx="5.443" ry="19.048"/>
	
		<ellipse transform="matrix(0.7071 -0.7071 0.7071 0.7071 165.1741 635.6599)" fill="#D75E75" cx="849.896" cy="118.447" rx="9.75" ry="19.503"/>
</g>
<path fill="#D75E75" d="M-301.334,426.333"/>
<path fill="#D75E75" d="M-297.333,426.333c0,0,4.998-4-4.001-14"/>
</svg>
