<?xml version="1.0" encoding="utf-8"?>
<!-- Generator: Adobe Illustrator 16.0.0, SVG Export Plug-In . SVG Version: 6.00 Build 0)  -->
<!DOCTYPE svg PUBLIC "-//W3C//DTD SVG 1.1//EN" "http://www.w3.org/Graphics/SVG/1.1/DTD/svg11.dtd">
<svg version="1.1" id="Layer_1" xmlns="http://www.w3.org/2000/svg" xmlns:xlink="http://www.w3.org/1999/xlink" x="0px" y="0px"
	 width="216px" height="216px" viewBox="0 0 216 216" enable-background="new 0 0 216 216" xml:space="preserve">
<circle fill="#D08D29" cx="654.092" cy="-142.232" r="97.298"/>
<circle fill="#FCB715" stroke="#A26F29" stroke-width="2" stroke-miterlimit="10" cx="654.092" cy="-142.232" r="87.174"/>
<g>
	<g>
		<path fill="#D08D29" d="M653.699-203.913c-34.621,0-62.688,28.069-62.688,62.688c0,34.623,28.066,62.689,62.688,62.689
			c34.62,0,62.688-28.066,62.688-62.689C716.388-175.844,688.319-203.913,653.699-203.913z M671.258-93.469
			c-0.356-4.905-0.761-10.982-0.785-13.442c-0.158-1.889-0.361-6.691-4.922-9.758c18.106-1.52,26.721-11.525,27.343-24.748
			c0.515-7.53-2.479-14.153-7.794-19.495c0.27-5.719-0.174-12.492-0.54-15.469c-4.083-1.175-13.603,3.851-16.265,6.001
			c-5.611-2.178-19.344-2.942-27.688,0c-5.919-4.16-12.652-6.73-16.323-6.015c-3.389,7.512-1.211,14.611-0.549,15.458
			c-4.364,3.987-10.453,8.897-8.799,19.182c2.652,15.08,13.263,23.213,30.344,25.205c-3.643,0.745-4.26,3.462-4.564,4.644
			c-11.471,4.732-14.752-2.924-16.201-4.918c-4.814-5.959-9.136-4.23-9.403-4.139c-0.26,0.096-0.452,0.473-0.427,0.652
			c0.243,1.284,2.863,2.59,2.994,2.694c3.553,2.648,4.871,7.431,5.68,8.796c5.096,8.382,16.946,4.905,17.059,4.976
			c0.01,0.733-0.082,6.9-0.15,11.7c-21.605-5.9-37.5-25.608-37.5-49.082c0-28.129,22.802-50.932,50.934-50.932
			s50.936,22.803,50.936,50.932C704.635-119.271,690.725-100.627,671.258-93.469z"/>
	</g>
</g>
<circle fill="#CF8D2A" stroke="#A26F29" stroke-width="2" stroke-miterlimit="10" cx="108.033" cy="106.5" r="101.225"/>
<circle fill="#FCB715" stroke="#A26F29" stroke-width="2" stroke-miterlimit="10" cx="108.033" cy="106.5" r="90.694"/>
<g>
	<circle fill="#BBB032" cx="-572.477" cy="131.008" r="136.725"/>
	<circle fill="#F6EC13" stroke="#ABA635" stroke-width="2" stroke-miterlimit="10" cx="-572.476" cy="131.008" r="122.5"/>
</g>
<g>
	<g>
		<path id="WordPress__x28_alt_x29_" fill="#CF8D2A" stroke="#A26F29" stroke-width="2" stroke-miterlimit="10" d="M53.225,76.798
			c10.501-19.588,31.562-32.396,55.847-32.396c15.721,0,30.084,6.699,41.112,16.154c-3.15-0.609-6.594,0.075-10.056,2.058
			c-8.116,4.654-10.77,17.825-0.246,24.441c6.569,4.106,8.906,14.386,8.688,20.666c-0.216,6.289-15.272,35.173-15.272,35.173
			l-14.661-50.342c0,0-0.506-3.532-0.506-4.55c0-1.284,0.424-2.857,1.217-3.756c0.546-0.597,1.379-1.852,2.363-1.852h6.949v-5.596
			H90.883v5.596h1.171c1.237,0,2.447,1.663,3.614,2.858c1.38,1.424,3.115,6.782,5.219,12.341l5.493,18.096l-11.838,27.354
			L81.554,88.371c0,0,0.383-3.747,1.168-4.383c0.512-0.437,1.298-1.593,2.207-1.593h0.358v-5.596H53.225z M60.63,86.3
			c0,0-3.056-3.905-6.298-3.905h-3.291c-3.175,6.996-4.929,16.391-4.929,25.002c0,25.902,15.886,48.118,38.517,57.583L60.63,86.3z
			 M163.25,76.299c1.196,5.677,0.951,12.563-1.383,20.138c-6.089,19.709-21.156,55.164-26.99,68.669
			c21.896-9.777,37.155-31.608,37.155-56.984C172.032,96.499,168.821,85.621,163.25,76.299z M110.343,129.517l-16.098,39.32
			c4.755,1.14,9.716,1.76,14.826,1.76c5.29,0,10.422-0.656,15.33-1.875L110.343,129.517z"/>
	</g>
	<g>
	</g>
	<g>
	</g>
	<g>
	</g>
	<g>
	</g>
	<g>
	</g>
	<g>
	</g>
	<g>
	</g>
	<g>
	</g>
	<g>
	</g>
	<g>
	</g>
	<g>
	</g>
	<g>
	</g>
	<g>
	</g>
	<g>
	</g>
	<g>
	</g>
</g>
</svg>
